# xmcd CD database file
#
# Track frame offsets:
#	150
#	20769
#	36227
#	60712
#	80795
#	99075
#	116900
#	134720
#	153272
#	172000
#	188847
#	205280
#	225175
#	240145
#
# Disc length: 3217 seconds
#
# Revision: 3
# Processed by: cddbd v1.5.2PL0 Copyright (c) Steve Scherf et al.
# Submitted via: CDex 1.50
#
DISCID=b70c8f0e
DTITLE=MEGADETH - YOUTHANASIA
DYEAR=1994
DGENRE=Death Metal
TTITLE0=RECKONING DAY
TTITLE1=TRAIN OF CONSEQUENCES
TTITLE2=ADDICTED TO CHAOS
TTITLE3=A TOUR LE MONDE
TTITLE4=ELYSIAN FIELDS
TTITLE5=THE KILLING ROAD
TTITLE6=BLOOD OF HEROES
TTITLE7=FAMILY TREE
TTITLE8=YOUTHANASIA
TTITLE9=I THOUGHT I KNEW IT ALL
TTITLE10=BLACK CURTAINS
TTITLE11=VICTORY
TTITLE12=CROWN OF WORMS
TTITLE13=TALKING
EXTD=YEAR: 1994
EXTT0=
EXTT1=
EXTT2=
EXTT3=
EXTT4=
EXTT5=
EXTT6=
EXTT7=
EXTT8=
EXTT9=
EXTT10=
EXTT11=
EXTT12=
EXTT13=
PLAYORDER=
